<svg xmlns="http://www.w3.org/2000/svg" viewBox="0 0 64 64" role="img" aria-label="Meow Meow cat icon">
  <rect width="64" height="64" rx="16" fill="#0f766e"/>
  <path d="M18 28.5 16.5 16.8c-.12-.96.94-1.62 1.75-1.1l9.1 5.85a21.4 21.4 0 0 1 9.3 0l9.1-5.85c.81-.52 1.87.14 1.75 1.1L46 28.5a17.2 17.2 0 0 1 3.2 10.1C49.2 49 41.5 55 32 55s-17.2-6-17.2-16.4c0-3.8 1.15-7.25 3.2-10.1Z" fill="#f8faf7"/>
  <path d="M24.2 36.2c0 1.35-1.1 2.45-2.45 2.45s-2.45-1.1-2.45-2.45 1.1-2.45 2.45-2.45 2.45 1.1 2.45 2.45Zm20.5 0c0 1.35-1.1 2.45-2.45 2.45s-2.45-1.1-2.45-2.45 1.1-2.45 2.45-2.45 2.45 1.1 2.45 2.45Z" fill="#0f766e"/>
  <path d="M31.1 40.3c.48-.54 1.32-.54 1.8 0l1.7 1.88c.62.68.14 1.77-.8 1.77h-3.6c-.94 0-1.42-1.09-.8-1.77l1.7-1.88Z" fill="#0f766e"/>
  <path d="M28.3 47.1c1.3 1.16 2.45 1.74 3.7 1.74s2.4-.58 3.7-1.74" stroke="#0f766e" stroke-width="2.4" stroke-linecap="round"/>
  <path d="M16.8 42.2h9.9M15.9 47h10.8M47.2 42.2h-9.9M48.1 47H37.3" stroke="#0f766e" stroke-width="2.2" stroke-linecap="round"/>
</svg>
